<svg xmlns="http://www.w3.org/2000/svg" viewBox="0 0 1100 180">
<defs><linearGradient id="x" x1="0" x2="1"><stop stop-color="#38bdf8"/><stop offset="1" stop-color="#818cf8"/></linearGradient></defs>
<rect width="1100" height="180" rx="18" fill="#080d18" stroke="#1e293b"/>
<g font-family="Arial,Helvetica,sans-serif" text-anchor="middle">
 <g fill="#0f172a" stroke="#334155">
  <rect x="25" y="58" width="150" height="62" rx="10"/><rect x="215" y="58" width="150" height="62" rx="10"/>
  <rect x="405" y="58" width="150" height="62" rx="10"/><rect x="595" y="58" width="150" height="62" rx="10"/>
  <rect x="785" y="58" width="130" height="62" rx="10"/><rect x="955" y="58" width="120" height="62" rx="10"/>
 </g>
 <g fill="#f8fafc" font-size="14" font-weight="700">
  <text x="100" y="85">DOMAIN</text><text x="290" y="85">FEATURES</text><text x="480" y="85">ML / RULES</text>
  <text x="670" y="85">ENRICHMENT</text><text x="850" y="85">RISK</text><text x="1015" y="85">DECISION</text>
 </g>
 <g fill="#64748b" font-size="10">
  <text x="100" y="103">URL / domain</text><text x="290" y="103">text • visual</text><text x="480" y="103">classification</text>
  <text x="670" y="103">DNS • SSL • TI</text><text x="850" y="103">scoring</text><text x="1015" y="103">safe / phishing</text>
 </g>
</g>
<g stroke="url(#x)" stroke-width="2" fill="none">
 <path d="M175 89H215M365 89H405M555 89H595M745 89H785M915 89H955"/>
</g>
</svg>