<svg xmlns="http://www.w3.org/2000/svg" viewBox="0 0 900 245">
<rect width="900" height="245" rx="18" fill="#080d18" stroke="#1e293b"/>
<g font-family="monospace">
 <text x="30" y="38" fill="#94a3b8" font-size="13">$ system-status --current-focus</text>
 <g fill="#f8fafc" font-size="14">
  <text x="30" y="75">AGENTIC AI</text><text x="30" y="112">AI SECURITY</text><text x="30" y="149">AI GOVERNANCE</text><text x="30" y="186">CYBER DEFENSE</text><text x="30" y="223">COMPUTER VISION</text>
 </g>
 <g fill="#1e293b">
  <rect x="190" y="62" width="560" height="16" rx="8"/><rect x="190" y="99" width="560" height="16" rx="8"/>
  <rect x="190" y="136" width="560" height="16" rx="8"/><rect x="190" y="173" width="560" height="16" rx="8"/>
  <rect x="190" y="210" width="560" height="16" rx="8"/>
 </g>
 <g fill="#38bdf8">
  <rect x="190" y="62" width="560" height="16" rx="8"/><rect x="190" y="99" width="510" height="16" rx="8"/>
  <rect x="190" y="136" width="465" height="16" rx="8"/><rect x="190" y="173" width="420" height="16" rx="8"/>
  <rect x="190" y="210" width="375" height="16" rx="8"/>
 </g>
</g>
</svg>